<mxfile host="app.diagrams.net" modified="2020-10-02T14:15:03.983Z" agent="5.0 (X11; Linux x86_64) AppleWebKit/537.36 (KHTML, like Gecko) Chrome/83.0.4103.116 Safari/537.36" etag="nnYkliUoRzcF7dMF2kCC" version="13.7.7" type="github">
  <diagram id="C5RBs43oDa-KdzZeNtuy" name="Page-1">
    <mxGraphModel dx="1422" dy="1950" grid="1" gridSize="10" guides="1" tooltips="1" connect="1" arrows="1" fold="1" page="1" pageScale="1" pageWidth="827" pageHeight="1169" math="0" shadow="0" extFonts="Permanent Marker^https://fonts.googleapis.com/css?family=Permanent+Marker">
      <root>
        <mxCell id="WIyWlLk6GJQsqaUBKTNV-0" />
        <mxCell id="WIyWlLk6GJQsqaUBKTNV-1" parent="WIyWlLk6GJQsqaUBKTNV-0" />
        <mxCell id="MVKSW0jM2tbk2f1vbTIU-30" style="edgeStyle=orthogonalEdgeStyle;rounded=0;orthogonalLoop=1;jettySize=auto;html=1;exitX=0.5;exitY=1;exitDx=0;exitDy=0;entryX=0.25;entryY=0;entryDx=0;entryDy=0;endArrow=blockThin;endFill=0;fontColor=none;" parent="WIyWlLk6GJQsqaUBKTNV-1" source="MVKSW0jM2tbk2f1vbTIU-24" target="MVKSW0jM2tbk2f1vbTIU-8" edge="1">
          <mxGeometry relative="1" as="geometry" />
        </mxCell>
        <mxCell id="MVKSW0jM2tbk2f1vbTIU-24" value="Belote" style="swimlane;fontStyle=1;align=center;verticalAlign=top;childLayout=stackLayout;horizontal=1;startSize=26;horizontalStack=0;resizeParent=1;resizeParentMax=0;resizeLast=0;collapsible=1;marginBottom=0;fontColor=none;" parent="WIyWlLk6GJQsqaUBKTNV-1" vertex="1">
          <mxGeometry x="10" y="194" width="160" height="34" as="geometry" />
        </mxCell>
        <mxCell id="MVKSW0jM2tbk2f1vbTIU-26" value="" style="line;strokeWidth=1;fillColor=none;align=left;verticalAlign=middle;spacingTop=-1;spacingLeft=3;spacingRight=3;rotatable=0;labelPosition=right;points=[];portConstraint=eastwest;" parent="MVKSW0jM2tbk2f1vbTIU-24" vertex="1">
          <mxGeometry y="26" width="160" height="8" as="geometry" />
        </mxCell>
        <mxCell id="MVKSW0jM2tbk2f1vbTIU-29" style="edgeStyle=orthogonalEdgeStyle;rounded=0;orthogonalLoop=1;jettySize=auto;html=1;exitX=0.5;exitY=1;exitDx=0;exitDy=0;endArrow=blockThin;endFill=0;fontColor=none;entryX=0.5;entryY=0;entryDx=0;entryDy=0;" parent="WIyWlLk6GJQsqaUBKTNV-1" source="MVKSW0jM2tbk2f1vbTIU-20" target="MVKSW0jM2tbk2f1vbTIU-8" edge="1">
          <mxGeometry relative="1" as="geometry">
            <mxPoint x="210" y="270" as="targetPoint" />
          </mxGeometry>
        </mxCell>
        <mxCell id="MVKSW0jM2tbk2f1vbTIU-20" value="Poker" style="swimlane;fontStyle=1;align=center;verticalAlign=top;childLayout=stackLayout;horizontal=1;startSize=26;horizontalStack=0;resizeParent=1;resizeParentMax=0;resizeLast=0;collapsible=1;marginBottom=0;fontColor=none;" parent="WIyWlLk6GJQsqaUBKTNV-1" vertex="1">
          <mxGeometry x="140" y="130" width="160" height="34" as="geometry" />
        </mxCell>
        <mxCell id="MVKSW0jM2tbk2f1vbTIU-22" value="" style="line;strokeWidth=1;fillColor=none;align=left;verticalAlign=middle;spacingTop=-1;spacingLeft=3;spacingRight=3;rotatable=0;labelPosition=right;points=[];portConstraint=eastwest;" parent="MVKSW0jM2tbk2f1vbTIU-20" vertex="1">
          <mxGeometry y="26" width="160" height="8" as="geometry" />
        </mxCell>
        <mxCell id="MVKSW0jM2tbk2f1vbTIU-31" style="edgeStyle=orthogonalEdgeStyle;rounded=0;orthogonalLoop=1;jettySize=auto;html=1;exitX=0.5;exitY=1;exitDx=0;exitDy=0;entryX=0.75;entryY=0;entryDx=0;entryDy=0;endArrow=blockThin;endFill=0;fontColor=none;" parent="WIyWlLk6GJQsqaUBKTNV-1" source="MVKSW0jM2tbk2f1vbTIU-16" target="MVKSW0jM2tbk2f1vbTIU-8" edge="1">
          <mxGeometry relative="1" as="geometry" />
        </mxCell>
        <mxCell id="MVKSW0jM2tbk2f1vbTIU-16" value="Solitaire" style="swimlane;fontStyle=1;align=center;verticalAlign=top;childLayout=stackLayout;horizontal=1;startSize=26;horizontalStack=0;resizeParent=1;resizeParentMax=0;resizeLast=0;collapsible=1;marginBottom=0;fontColor=none;" parent="WIyWlLk6GJQsqaUBKTNV-1" vertex="1">
          <mxGeometry x="254" y="194" width="160" height="34" as="geometry" />
        </mxCell>
        <mxCell id="MVKSW0jM2tbk2f1vbTIU-18" value="" style="line;strokeWidth=1;fillColor=none;align=left;verticalAlign=middle;spacingTop=-1;spacingLeft=3;spacingRight=3;rotatable=0;labelPosition=right;points=[];portConstraint=eastwest;" parent="MVKSW0jM2tbk2f1vbTIU-16" vertex="1">
          <mxGeometry y="26" width="160" height="8" as="geometry" />
        </mxCell>
        <mxCell id="MVKSW0jM2tbk2f1vbTIU-32" style="edgeStyle=orthogonalEdgeStyle;rounded=0;orthogonalLoop=1;jettySize=auto;html=1;exitX=0;exitY=0.5;exitDx=0;exitDy=0;entryX=1;entryY=0.5;entryDx=0;entryDy=0;endArrow=openThin;endFill=0;fontColor=none;dashed=1;" parent="WIyWlLk6GJQsqaUBKTNV-1" source="MVKSW0jM2tbk2f1vbTIU-3" edge="1">
          <mxGeometry relative="1" as="geometry">
            <mxPoint x="290" y="317" as="targetPoint" />
          </mxGeometry>
        </mxCell>
        <mxCell id="MVKSW0jM2tbk2f1vbTIU-33" value="&amp;lt;&amp;lt;Use&amp;gt;&amp;gt;" style="text;html=1;strokeColor=none;fillColor=none;align=center;verticalAlign=middle;whiteSpace=wrap;rounded=0;fontColor=none;" parent="WIyWlLk6GJQsqaUBKTNV-1" vertex="1">
          <mxGeometry x="350" y="290" width="40" height="20" as="geometry" />
        </mxCell>
        <mxCell id="MVKSW0jM2tbk2f1vbTIU-39" style="edgeStyle=orthogonalEdgeStyle;rounded=0;orthogonalLoop=1;jettySize=auto;html=1;exitX=1;exitY=0.5;exitDx=0;exitDy=0;entryX=0.013;entryY=-0.077;entryDx=0;entryDy=0;entryPerimeter=0;dashed=1;endArrow=openThin;endFill=0;fontColor=none;" parent="WIyWlLk6GJQsqaUBKTNV-1" source="MVKSW0jM2tbk2f1vbTIU-3" target="MVKSW0jM2tbk2f1vbTIU-37" edge="1">
          <mxGeometry relative="1" as="geometry" />
        </mxCell>
        <mxCell id="MVKSW0jM2tbk2f1vbTIU-0" value="GameService" style="swimlane;fontStyle=1;align=center;verticalAlign=top;childLayout=stackLayout;horizontal=1;startSize=26;horizontalStack=0;resizeParent=1;resizeParentMax=0;resizeLast=0;collapsible=1;marginBottom=0;" parent="WIyWlLk6GJQsqaUBKTNV-1" vertex="1">
          <mxGeometry x="460" y="255" width="160" height="90" as="geometry" />
        </mxCell>
        <mxCell id="MVKSW0jM2tbk2f1vbTIU-2" value="" style="line;strokeWidth=1;fillColor=none;align=left;verticalAlign=middle;spacingTop=-1;spacingLeft=3;spacingRight=3;rotatable=0;labelPosition=right;points=[];portConstraint=eastwest;" parent="MVKSW0jM2tbk2f1vbTIU-0" vertex="1">
          <mxGeometry y="26" width="160" height="8" as="geometry" />
        </mxCell>
        <mxCell id="MVKSW0jM2tbk2f1vbTIU-3" value="+poserCarte()&#xa;+initJeu()" style="text;strokeColor=none;fillColor=none;align=left;verticalAlign=top;spacingLeft=4;spacingRight=4;overflow=hidden;rotatable=0;points=[[0,0.5],[1,0.5]];portConstraint=eastwest;" parent="MVKSW0jM2tbk2f1vbTIU-0" vertex="1">
          <mxGeometry y="34" width="160" height="56" as="geometry" />
        </mxCell>
        <mxCell id="MVKSW0jM2tbk2f1vbTIU-40" value="&amp;lt;&amp;lt;Create&amp;gt;&amp;gt;" style="text;html=1;strokeColor=none;fillColor=none;align=center;verticalAlign=middle;whiteSpace=wrap;rounded=0;fontColor=none;" parent="WIyWlLk6GJQsqaUBKTNV-1" vertex="1">
          <mxGeometry x="670" y="290" width="40" height="20" as="geometry" />
        </mxCell>
        <mxCell id="MVKSW0jM2tbk2f1vbTIU-56" style="edgeStyle=orthogonalEdgeStyle;rounded=0;orthogonalLoop=1;jettySize=auto;html=1;entryX=0;entryY=0.5;entryDx=0;entryDy=0;dashed=1;endArrow=blockThin;endFill=0;fontColor=none;exitX=0.563;exitY=1.15;exitDx=0;exitDy=0;exitPerimeter=0;" parent="WIyWlLk6GJQsqaUBKTNV-1" source="MVKSW0jM2tbk2f1vbTIU-142" target="MVKSW0jM2tbk2f1vbTIU-47" edge="1">
          <mxGeometry relative="1" as="geometry">
            <Array as="points">
              <mxPoint x="580" y="120" />
            </Array>
            <mxPoint x="580" y="70" as="sourcePoint" />
          </mxGeometry>
        </mxCell>
        <mxCell id="MVKSW0jM2tbk2f1vbTIU-46" value="&amp;lt;&amp;lt;Use&amp;gt;&amp;gt;" style="text;html=1;strokeColor=none;fillColor=none;align=center;verticalAlign=middle;whiteSpace=wrap;rounded=0;fontColor=none;" parent="WIyWlLk6GJQsqaUBKTNV-1" vertex="1">
          <mxGeometry x="540" y="194" width="40" height="20" as="geometry" />
        </mxCell>
        <mxCell id="MVKSW0jM2tbk2f1vbTIU-76" style="edgeStyle=orthogonalEdgeStyle;rounded=0;orthogonalLoop=1;jettySize=auto;html=1;exitX=0.5;exitY=1;exitDx=0;exitDy=0;entryX=0.5;entryY=0;entryDx=0;entryDy=0;endArrow=openThin;endFill=0;endSize=9;strokeWidth=1;fontColor=none;dashed=1;" parent="WIyWlLk6GJQsqaUBKTNV-1" source="MVKSW0jM2tbk2f1vbTIU-51" target="MVKSW0jM2tbk2f1vbTIU-47" edge="1">
          <mxGeometry relative="1" as="geometry" />
        </mxCell>
        <mxCell id="MVKSW0jM2tbk2f1vbTIU-87" style="edgeStyle=orthogonalEdgeStyle;rounded=0;orthogonalLoop=1;jettySize=auto;html=1;exitX=1;exitY=0.25;exitDx=0;exitDy=0;entryX=0.563;entryY=0;entryDx=0;entryDy=0;entryPerimeter=0;endArrow=openThin;endFill=0;endSize=9;strokeWidth=1;fontColor=none;dashed=1;" parent="WIyWlLk6GJQsqaUBKTNV-1" source="MVKSW0jM2tbk2f1vbTIU-51" target="MVKSW0jM2tbk2f1vbTIU-74" edge="1">
          <mxGeometry relative="1" as="geometry" />
        </mxCell>
        <mxCell id="MVKSW0jM2tbk2f1vbTIU-99" style="edgeStyle=orthogonalEdgeStyle;rounded=0;orthogonalLoop=1;jettySize=auto;html=1;exitX=0.5;exitY=0;exitDx=0;exitDy=0;entryX=0.5;entryY=0;entryDx=0;entryDy=0;endArrow=blockThin;endFill=0;endSize=9;strokeWidth=1;fontColor=none;" parent="WIyWlLk6GJQsqaUBKTNV-1" source="MVKSW0jM2tbk2f1vbTIU-51" target="MVKSW0jM2tbk2f1vbTIU-90" edge="1">
          <mxGeometry relative="1" as="geometry" />
        </mxCell>
        <mxCell id="MVKSW0jM2tbk2f1vbTIU-51" value="HandDAO" style="swimlane;fontStyle=1;align=center;verticalAlign=top;childLayout=stackLayout;horizontal=1;startSize=26;horizontalStack=0;resizeParent=1;resizeParentMax=0;resizeLast=0;collapsible=1;marginBottom=0;fontColor=none;" parent="WIyWlLk6GJQsqaUBKTNV-1" vertex="1">
          <mxGeometry x="760" y="-34" width="160" height="34" as="geometry" />
        </mxCell>
        <mxCell id="MVKSW0jM2tbk2f1vbTIU-52" value="" style="line;strokeWidth=1;fillColor=none;align=left;verticalAlign=middle;spacingTop=-1;spacingLeft=3;spacingRight=3;rotatable=0;labelPosition=right;points=[];portConstraint=eastwest;" parent="MVKSW0jM2tbk2f1vbTIU-51" vertex="1">
          <mxGeometry y="26" width="160" height="8" as="geometry" />
        </mxCell>
        <mxCell id="MVKSW0jM2tbk2f1vbTIU-57" value="&amp;lt;&amp;lt;Use&amp;gt;&amp;gt;" style="text;html=1;strokeColor=none;fillColor=none;align=center;verticalAlign=middle;whiteSpace=wrap;rounded=0;fontColor=none;" parent="WIyWlLk6GJQsqaUBKTNV-1" vertex="1">
          <mxGeometry x="620" y="90" width="40" height="20" as="geometry" />
        </mxCell>
        <mxCell id="MVKSW0jM2tbk2f1vbTIU-72" style="edgeStyle=orthogonalEdgeStyle;rounded=0;orthogonalLoop=1;jettySize=auto;html=1;exitX=1;exitY=0.5;exitDx=0;exitDy=0;entryX=0;entryY=0.5;entryDx=0;entryDy=0;endArrow=block;endFill=0;fontColor=none;strokeWidth=1;endSize=8;" parent="WIyWlLk6GJQsqaUBKTNV-1" source="MVKSW0jM2tbk2f1vbTIU-59" target="MVKSW0jM2tbk2f1vbTIU-69" edge="1">
          <mxGeometry relative="1" as="geometry">
            <Array as="points">
              <mxPoint x="400" y="-33" />
            </Array>
          </mxGeometry>
        </mxCell>
        <mxCell id="MVKSW0jM2tbk2f1vbTIU-59" value="Joueur&#xa;" style="swimlane;fontStyle=1;align=center;verticalAlign=top;childLayout=stackLayout;horizontal=1;startSize=26;horizontalStack=0;resizeParent=1;resizeParentMax=0;resizeLast=0;collapsible=1;marginBottom=0;fontColor=none;" parent="WIyWlLk6GJQsqaUBKTNV-1" vertex="1">
          <mxGeometry x="240" y="-60" width="160" height="34" as="geometry" />
        </mxCell>
        <mxCell id="MVKSW0jM2tbk2f1vbTIU-61" value="" style="line;strokeWidth=1;fillColor=none;align=left;verticalAlign=middle;spacingTop=-1;spacingLeft=3;spacingRight=3;rotatable=0;labelPosition=right;points=[];portConstraint=eastwest;" parent="MVKSW0jM2tbk2f1vbTIU-59" vertex="1">
          <mxGeometry y="26" width="160" height="8" as="geometry" />
        </mxCell>
        <mxCell id="MVKSW0jM2tbk2f1vbTIU-71" style="edgeStyle=orthogonalEdgeStyle;rounded=0;orthogonalLoop=1;jettySize=auto;html=1;exitX=1;exitY=0.5;exitDx=0;exitDy=0;entryX=0;entryY=0.5;entryDx=0;entryDy=0;endArrow=block;endFill=0;fontColor=none;endSize=9;" parent="WIyWlLk6GJQsqaUBKTNV-1" source="MVKSW0jM2tbk2f1vbTIU-67" target="MVKSW0jM2tbk2f1vbTIU-59" edge="1">
          <mxGeometry relative="1" as="geometry" />
        </mxCell>
        <mxCell id="MVKSW0jM2tbk2f1vbTIU-67" value="Admin" style="swimlane;fontStyle=1;align=center;verticalAlign=top;childLayout=stackLayout;horizontal=1;startSize=26;horizontalStack=0;resizeParent=1;resizeParentMax=0;resizeLast=0;collapsible=1;marginBottom=0;fontColor=none;" parent="WIyWlLk6GJQsqaUBKTNV-1" vertex="1">
          <mxGeometry y="-60" width="150" height="34" as="geometry" />
        </mxCell>
        <mxCell id="MVKSW0jM2tbk2f1vbTIU-68" value="" style="line;strokeWidth=1;fillColor=none;align=left;verticalAlign=middle;spacingTop=-1;spacingLeft=3;spacingRight=3;rotatable=0;labelPosition=right;points=[];portConstraint=eastwest;" parent="MVKSW0jM2tbk2f1vbTIU-67" vertex="1">
          <mxGeometry y="26" width="150" height="8" as="geometry" />
        </mxCell>
        <mxCell id="MVKSW0jM2tbk2f1vbTIU-77" value="&amp;lt;&amp;lt;Create&amp;gt;&amp;gt;" style="text;html=1;strokeColor=none;fillColor=none;align=center;verticalAlign=middle;whiteSpace=wrap;rounded=0;fontColor=none;" parent="WIyWlLk6GJQsqaUBKTNV-1" vertex="1">
          <mxGeometry x="870" y="20" width="40" height="20" as="geometry" />
        </mxCell>
        <mxCell id="MVKSW0jM2tbk2f1vbTIU-83" style="edgeStyle=orthogonalEdgeStyle;rounded=0;orthogonalLoop=1;jettySize=auto;html=1;exitX=0.5;exitY=0;exitDx=0;exitDy=0;entryX=0.5;entryY=1;entryDx=0;entryDy=0;dashed=1;endArrow=openThin;endFill=0;endSize=9;strokeWidth=1;fontColor=none;" parent="WIyWlLk6GJQsqaUBKTNV-1" source="MVKSW0jM2tbk2f1vbTIU-34" target="MVKSW0jM2tbk2f1vbTIU-79" edge="1">
          <mxGeometry relative="1" as="geometry" />
        </mxCell>
        <mxCell id="MVKSW0jM2tbk2f1vbTIU-86" style="edgeStyle=orthogonalEdgeStyle;rounded=0;orthogonalLoop=1;jettySize=auto;html=1;endArrow=openThin;endFill=0;endSize=9;strokeWidth=1;fontColor=none;dashed=1;exitX=1;exitY=0.75;exitDx=0;exitDy=0;" parent="WIyWlLk6GJQsqaUBKTNV-1" source="MVKSW0jM2tbk2f1vbTIU-79" edge="1">
          <mxGeometry relative="1" as="geometry">
            <mxPoint x="1160" y="160" as="targetPoint" />
            <mxPoint x="950" y="230" as="sourcePoint" />
            <Array as="points">
              <mxPoint x="1160" y="229" />
            </Array>
          </mxGeometry>
        </mxCell>
        <mxCell id="MVKSW0jM2tbk2f1vbTIU-34" value="Pile" style="swimlane;fontStyle=1;align=center;verticalAlign=top;childLayout=stackLayout;horizontal=1;startSize=26;horizontalStack=0;resizeParent=1;resizeParentMax=0;resizeLast=0;collapsible=1;marginBottom=0;fontColor=none;" parent="WIyWlLk6GJQsqaUBKTNV-1" vertex="1">
          <mxGeometry x="760" y="350" width="160" height="80" as="geometry" />
        </mxCell>
        <mxCell id="MVKSW0jM2tbk2f1vbTIU-125" value="+card_list: dict/list?" style="text;html=1;align=center;verticalAlign=middle;resizable=0;points=[];autosize=1;fontColor=none;" parent="MVKSW0jM2tbk2f1vbTIU-34" vertex="1">
          <mxGeometry y="26" width="160" height="20" as="geometry" />
        </mxCell>
        <mxCell id="MVKSW0jM2tbk2f1vbTIU-36" value="" style="line;strokeWidth=1;fillColor=none;align=left;verticalAlign=middle;spacingTop=-1;spacingLeft=3;spacingRight=3;rotatable=0;labelPosition=right;points=[];portConstraint=eastwest;" parent="MVKSW0jM2tbk2f1vbTIU-34" vertex="1">
          <mxGeometry y="46" width="160" height="4" as="geometry" />
        </mxCell>
        <mxCell id="MVKSW0jM2tbk2f1vbTIU-37" value="Pli en cours" style="text;strokeColor=none;fillColor=none;align=left;verticalAlign=top;spacingLeft=4;spacingRight=4;overflow=hidden;rotatable=0;points=[[0,0.5],[1,0.5]];portConstraint=eastwest;" parent="MVKSW0jM2tbk2f1vbTIU-34" vertex="1">
          <mxGeometry y="50" width="160" height="30" as="geometry" />
        </mxCell>
        <mxCell id="MVKSW0jM2tbk2f1vbTIU-85" style="edgeStyle=orthogonalEdgeStyle;rounded=0;orthogonalLoop=1;jettySize=auto;html=1;exitX=0.5;exitY=0;exitDx=0;exitDy=0;entryX=0.5;entryY=1;entryDx=0;entryDy=0;endArrow=openThin;endFill=0;endSize=9;strokeWidth=1;fontColor=none;" parent="WIyWlLk6GJQsqaUBKTNV-1" source="MVKSW0jM2tbk2f1vbTIU-79" target="MVKSW0jM2tbk2f1vbTIU-47" edge="1">
          <mxGeometry relative="1" as="geometry" />
        </mxCell>
        <mxCell id="MVKSW0jM2tbk2f1vbTIU-84" value="&amp;lt;&amp;lt;Create&amp;gt;&amp;gt;" style="text;html=1;strokeColor=none;fillColor=none;align=center;verticalAlign=middle;whiteSpace=wrap;rounded=0;fontColor=none;" parent="WIyWlLk6GJQsqaUBKTNV-1" vertex="1">
          <mxGeometry x="850" y="290" width="40" height="20" as="geometry" />
        </mxCell>
        <mxCell id="MVKSW0jM2tbk2f1vbTIU-88" value="&amp;lt;&amp;lt;Use&amp;gt;&amp;gt;" style="text;html=1;strokeColor=none;fillColor=none;align=center;verticalAlign=middle;whiteSpace=wrap;rounded=0;fontColor=none;" parent="WIyWlLk6GJQsqaUBKTNV-1" vertex="1">
          <mxGeometry x="1100" y="60" width="40" height="20" as="geometry" />
        </mxCell>
        <mxCell id="MVKSW0jM2tbk2f1vbTIU-89" value="&amp;lt;&amp;lt;Use&amp;gt;&amp;gt;" style="text;html=1;strokeColor=none;fillColor=none;align=center;verticalAlign=middle;whiteSpace=wrap;rounded=0;fontColor=none;" parent="WIyWlLk6GJQsqaUBKTNV-1" vertex="1">
          <mxGeometry x="1010" y="194" width="40" height="20" as="geometry" />
        </mxCell>
        <mxCell id="MVKSW0jM2tbk2f1vbTIU-90" value="Deck" style="swimlane;fontStyle=1;align=center;verticalAlign=top;childLayout=stackLayout;horizontal=1;startSize=26;horizontalStack=0;resizeParent=1;resizeParentMax=0;resizeLast=0;collapsible=1;marginBottom=0;fontColor=none;" parent="WIyWlLk6GJQsqaUBKTNV-1" vertex="1">
          <mxGeometry x="1370" y="120" width="160" height="90" as="geometry" />
        </mxCell>
        <mxCell id="MVKSW0jM2tbk2f1vbTIU-92" value="" style="line;strokeWidth=1;fillColor=none;align=left;verticalAlign=middle;spacingTop=-1;spacingLeft=3;spacingRight=3;rotatable=0;labelPosition=right;points=[];portConstraint=eastwest;" parent="MVKSW0jM2tbk2f1vbTIU-90" vertex="1">
          <mxGeometry y="26" width="160" height="44" as="geometry" />
        </mxCell>
        <mxCell id="MVKSW0jM2tbk2f1vbTIU-119" value="+shuffle() : API" style="text;html=1;align=left;verticalAlign=middle;resizable=0;points=[];autosize=1;fontColor=none;" parent="MVKSW0jM2tbk2f1vbTIU-90" vertex="1">
          <mxGeometry y="70" width="160" height="20" as="geometry" />
        </mxCell>
        <mxCell id="MVKSW0jM2tbk2f1vbTIU-101" value="" style="endArrow=block;html=1;strokeWidth=1;fontColor=none;entryX=0.5;entryY=1;entryDx=0;entryDy=0;endFill=0;endSize=8;" parent="WIyWlLk6GJQsqaUBKTNV-1" target="MVKSW0jM2tbk2f1vbTIU-90" edge="1" source="MVKSW0jM2tbk2f1vbTIU-37">
          <mxGeometry width="50" height="50" relative="1" as="geometry">
            <mxPoint x="842" y="490" as="sourcePoint" />
            <mxPoint x="1449.6799999999998" y="182.00200000000018" as="targetPoint" />
            <Array as="points">
              <mxPoint x="842" y="500" />
              <mxPoint x="1450" y="500" />
            </Array>
          </mxGeometry>
        </mxCell>
        <mxCell id="MVKSW0jM2tbk2f1vbTIU-102" style="edgeStyle=orthogonalEdgeStyle;rounded=0;orthogonalLoop=1;jettySize=auto;html=1;exitX=0;exitY=0.5;exitDx=0;exitDy=0;entryX=1;entryY=0.5;entryDx=0;entryDy=0;endArrow=diamond;endFill=1;endSize=8;strokeWidth=1;fontColor=none;" parent="WIyWlLk6GJQsqaUBKTNV-1" edge="1">
          <mxGeometry relative="1" as="geometry">
            <mxPoint x="1630" y="140" as="sourcePoint" />
            <mxPoint x="1530" y="140" as="targetPoint" />
          </mxGeometry>
        </mxCell>
        <mxCell id="MVKSW0jM2tbk2f1vbTIU-106" value="" style="endArrow=classic;html=1;strokeWidth=1;fontColor=none;exitX=0.5;exitY=1;exitDx=0;exitDy=0;entryX=0.75;entryY=1;entryDx=0;entryDy=0;" parent="WIyWlLk6GJQsqaUBKTNV-1" source="MVKSW0jM2tbk2f1vbTIU-8" target="MVKSW0jM2tbk2f1vbTIU-90" edge="1">
          <mxGeometry width="50" height="50" relative="1" as="geometry">
            <mxPoint x="250" y="480" as="sourcePoint" />
            <mxPoint x="300" y="430" as="targetPoint" />
            <Array as="points">
              <mxPoint x="210" y="600" />
              <mxPoint x="700" y="600" />
              <mxPoint x="930" y="600" />
              <mxPoint x="1490" y="600" />
            </Array>
          </mxGeometry>
        </mxCell>
        <mxCell id="MVKSW0jM2tbk2f1vbTIU-94" value="Cards" style="swimlane;fontStyle=1;align=center;verticalAlign=top;childLayout=stackLayout;horizontal=1;startSize=26;horizontalStack=0;resizeParent=1;resizeParentMax=0;resizeLast=0;collapsible=1;marginBottom=0;fontColor=none;" parent="WIyWlLk6GJQsqaUBKTNV-1" vertex="1">
          <mxGeometry x="1630" y="88" width="160" height="110" as="geometry" />
        </mxCell>
        <mxCell id="MVKSW0jM2tbk2f1vbTIU-110" value="+ id_card : num" style="text;html=1;align=left;verticalAlign=middle;resizable=0;points=[];autosize=1;fontColor=none;" parent="MVKSW0jM2tbk2f1vbTIU-94" vertex="1">
          <mxGeometry y="26" width="160" height="20" as="geometry" />
        </mxCell>
        <mxCell id="MVKSW0jM2tbk2f1vbTIU-111" value="+ color : str" style="text;html=1;align=left;verticalAlign=middle;resizable=0;points=[];autosize=1;fontColor=none;" parent="MVKSW0jM2tbk2f1vbTIU-94" vertex="1">
          <mxGeometry y="46" width="160" height="20" as="geometry" />
        </mxCell>
        <mxCell id="MVKSW0jM2tbk2f1vbTIU-107" value="+ figure : str" style="text;html=1;align=left;verticalAlign=middle;resizable=0;points=[];autosize=1;fontColor=none;" parent="MVKSW0jM2tbk2f1vbTIU-94" vertex="1">
          <mxGeometry y="66" width="160" height="20" as="geometry" />
        </mxCell>
        <mxCell id="MVKSW0jM2tbk2f1vbTIU-96" value="" style="line;strokeWidth=1;fillColor=none;align=left;verticalAlign=middle;spacingTop=-1;spacingLeft=3;spacingRight=3;rotatable=0;labelPosition=right;points=[];portConstraint=eastwest;" parent="MVKSW0jM2tbk2f1vbTIU-94" vertex="1">
          <mxGeometry y="86" width="160" height="4" as="geometry" />
        </mxCell>
        <mxCell id="MVKSW0jM2tbk2f1vbTIU-113" value="+seeCard()" style="text;html=1;align=left;verticalAlign=middle;resizable=0;points=[];autosize=1;fontColor=none;" parent="MVKSW0jM2tbk2f1vbTIU-94" vertex="1">
          <mxGeometry y="90" width="160" height="20" as="geometry" />
        </mxCell>
        <mxCell id="MVKSW0jM2tbk2f1vbTIU-122" value="+createNewDeck() : API" style="text;html=1;align=left;verticalAlign=middle;resizable=0;points=[];autosize=1;fontColor=none;" parent="WIyWlLk6GJQsqaUBKTNV-1" vertex="1">
          <mxGeometry x="1370" y="170" width="140" height="20" as="geometry" />
        </mxCell>
        <mxCell id="MVKSW0jM2tbk2f1vbTIU-74" value="PoolConnection" style="swimlane;fontStyle=1;align=center;verticalAlign=top;childLayout=stackLayout;horizontal=1;startSize=26;horizontalStack=0;resizeParent=1;resizeParentMax=0;resizeLast=0;collapsible=1;marginBottom=0;fontColor=none;" parent="WIyWlLk6GJQsqaUBKTNV-1" vertex="1">
          <mxGeometry x="1070" y="88" width="160" height="70" as="geometry" />
        </mxCell>
        <mxCell id="MVKSW0jM2tbk2f1vbTIU-75" value="" style="line;strokeWidth=1;fillColor=none;align=left;verticalAlign=middle;spacingTop=-1;spacingLeft=3;spacingRight=3;rotatable=0;labelPosition=right;points=[];portConstraint=eastwest;" parent="MVKSW0jM2tbk2f1vbTIU-74" vertex="1">
          <mxGeometry y="26" width="160" height="24" as="geometry" />
        </mxCell>
        <mxCell id="MVKSW0jM2tbk2f1vbTIU-146" value="VOIR TP2" style="text;html=1;align=center;verticalAlign=middle;resizable=0;points=[];autosize=1;fontColor=none;" parent="MVKSW0jM2tbk2f1vbTIU-74" vertex="1">
          <mxGeometry y="50" width="160" height="20" as="geometry" />
        </mxCell>
        <mxCell id="MVKSW0jM2tbk2f1vbTIU-130" style="edgeStyle=orthogonalEdgeStyle;rounded=0;orthogonalLoop=1;jettySize=auto;html=1;exitX=1;exitY=-0.115;exitDx=0;exitDy=0;endArrow=openThin;endFill=0;endSize=8;strokeWidth=1;fontColor=none;entryX=0.881;entryY=0.019;entryDx=0;entryDy=0;entryPerimeter=0;dashed=1;exitPerimeter=0;" parent="WIyWlLk6GJQsqaUBKTNV-1" source="MVKSW0jM2tbk2f1vbTIU-156" target="MVKSW0jM2tbk2f1vbTIU-74" edge="1">
          <mxGeometry relative="1" as="geometry">
            <mxPoint x="1210" y="80" as="targetPoint" />
          </mxGeometry>
        </mxCell>
        <mxCell id="MVKSW0jM2tbk2f1vbTIU-134" style="edgeStyle=orthogonalEdgeStyle;rounded=0;orthogonalLoop=1;jettySize=auto;html=1;exitX=0.5;exitY=1;exitDx=0;exitDy=0;entryX=0.5;entryY=0;entryDx=0;entryDy=0;dashed=1;endArrow=openThin;endFill=0;endSize=8;strokeWidth=1;fontColor=none;" parent="WIyWlLk6GJQsqaUBKTNV-1" source="MVKSW0jM2tbk2f1vbTIU-126" target="MVKSW0jM2tbk2f1vbTIU-59" edge="1">
          <mxGeometry relative="1" as="geometry" />
        </mxCell>
        <mxCell id="MVKSW0jM2tbk2f1vbTIU-133" value="&amp;lt;&amp;lt;Use&amp;gt;&amp;gt;" style="text;html=1;strokeColor=none;fillColor=none;align=center;verticalAlign=middle;whiteSpace=wrap;rounded=0;fontColor=none;" parent="WIyWlLk6GJQsqaUBKTNV-1" vertex="1">
          <mxGeometry x="1120" y="-201" width="40" height="20" as="geometry" />
        </mxCell>
        <mxCell id="MVKSW0jM2tbk2f1vbTIU-135" value="&amp;lt;&amp;lt;Create&amp;gt;&amp;gt;" style="text;html=1;strokeColor=none;fillColor=none;align=center;verticalAlign=middle;whiteSpace=wrap;rounded=0;fontColor=none;" parent="WIyWlLk6GJQsqaUBKTNV-1" vertex="1">
          <mxGeometry x="350" y="-110" width="40" height="20" as="geometry" />
        </mxCell>
        <mxCell id="MVKSW0jM2tbk2f1vbTIU-139" style="edgeStyle=orthogonalEdgeStyle;rounded=0;orthogonalLoop=1;jettySize=auto;html=1;exitX=1;exitY=0.5;exitDx=0;exitDy=0;startArrow=none;startFill=0;startSize=8;endArrow=block;endFill=0;endSize=8;strokeWidth=1;fontColor=none;entryX=-0.006;entryY=0.189;entryDx=0;entryDy=0;entryPerimeter=0;" parent="WIyWlLk6GJQsqaUBKTNV-1" source="MVKSW0jM2tbk2f1vbTIU-137" target="MVKSW0jM2tbk2f1vbTIU-126" edge="1">
          <mxGeometry relative="1" as="geometry">
            <mxPoint x="230" y="-231" as="targetPoint" />
            <Array as="points">
              <mxPoint x="150" y="-235" />
            </Array>
          </mxGeometry>
        </mxCell>
        <mxCell id="MVKSW0jM2tbk2f1vbTIU-140" style="edgeStyle=orthogonalEdgeStyle;rounded=0;orthogonalLoop=1;jettySize=auto;html=1;exitX=0.5;exitY=1;exitDx=0;exitDy=0;entryX=0.5;entryY=0;entryDx=0;entryDy=0;startArrow=none;startFill=0;startSize=8;endArrow=openThin;endFill=0;endSize=8;strokeWidth=1;fontColor=none;dashed=1;" parent="WIyWlLk6GJQsqaUBKTNV-1" source="MVKSW0jM2tbk2f1vbTIU-137" target="MVKSW0jM2tbk2f1vbTIU-67" edge="1">
          <mxGeometry relative="1" as="geometry" />
        </mxCell>
        <mxCell id="MVKSW0jM2tbk2f1vbTIU-141" value="&amp;lt;&amp;lt;Create&amp;gt;&amp;gt;" style="text;html=1;strokeColor=none;fillColor=none;align=center;verticalAlign=middle;whiteSpace=wrap;rounded=0;fontColor=none;" parent="WIyWlLk6GJQsqaUBKTNV-1" vertex="1">
          <mxGeometry x="100" y="-110" width="40" height="20" as="geometry" />
        </mxCell>
        <mxCell id="5KWjt4JvU5Wqs_fnBMRH-2" style="edgeStyle=orthogonalEdgeStyle;rounded=0;orthogonalLoop=1;jettySize=auto;html=1;exitX=0.5;exitY=0;exitDx=0;exitDy=0;endArrow=none;endFill=0;dashed=1;startArrow=openThin;startFill=0;" parent="WIyWlLk6GJQsqaUBKTNV-1" source="MVKSW0jM2tbk2f1vbTIU-69" edge="1">
          <mxGeometry relative="1" as="geometry">
            <mxPoint x="570.6666666666665" y="-190" as="targetPoint" />
          </mxGeometry>
        </mxCell>
        <mxCell id="MVKSW0jM2tbk2f1vbTIU-148" value="" style="endArrow=none;dashed=1;html=1;strokeWidth=1;fontColor=none;entryX=-0.013;entryY=0.379;entryDx=0;entryDy=0;entryPerimeter=0;exitX=0.5;exitY=1;exitDx=0;exitDy=0;endFill=0;startArrow=open;startFill=0;" parent="WIyWlLk6GJQsqaUBKTNV-1" source="MVKSW0jM2tbk2f1vbTIU-59" target="MVKSW0jM2tbk2f1vbTIU-142" edge="1">
          <mxGeometry width="50" height="50" relative="1" as="geometry">
            <mxPoint x="430" y="80" as="sourcePoint" />
            <mxPoint x="480" y="30" as="targetPoint" />
            <Array as="points">
              <mxPoint x="320" y="38" />
            </Array>
          </mxGeometry>
        </mxCell>
        <mxCell id="MVKSW0jM2tbk2f1vbTIU-149" value="&amp;lt;&amp;lt;Become&amp;gt;&amp;gt;" style="text;html=1;strokeColor=none;fillColor=none;align=center;verticalAlign=middle;whiteSpace=wrap;rounded=0;fontColor=none;" parent="WIyWlLk6GJQsqaUBKTNV-1" vertex="1">
          <mxGeometry x="300" y="63" width="40" height="17" as="geometry" />
        </mxCell>
        <mxCell id="MVKSW0jM2tbk2f1vbTIU-126" value="JoueurDAO" style="swimlane;fontStyle=1;align=center;verticalAlign=top;childLayout=stackLayout;horizontal=1;startSize=26;horizontalStack=0;resizeParent=1;resizeParentMax=0;resizeLast=0;collapsible=1;marginBottom=0;fontColor=none;" parent="WIyWlLk6GJQsqaUBKTNV-1" vertex="1">
          <mxGeometry x="240" y="-248" width="160" height="50" as="geometry" />
        </mxCell>
        <mxCell id="MVKSW0jM2tbk2f1vbTIU-128" value="" style="line;strokeWidth=1;fillColor=none;align=left;verticalAlign=middle;spacingTop=-1;spacingLeft=3;spacingRight=3;rotatable=0;labelPosition=right;points=[];portConstraint=eastwest;" parent="MVKSW0jM2tbk2f1vbTIU-126" vertex="1">
          <mxGeometry y="26" width="160" height="24" as="geometry" />
        </mxCell>
        <mxCell id="MVKSW0jM2tbk2f1vbTIU-137" value="AdminDAO" style="swimlane;fontStyle=1;align=center;verticalAlign=top;childLayout=stackLayout;horizontal=1;startSize=26;horizontalStack=0;resizeParent=1;resizeParentMax=0;resizeLast=0;collapsible=1;marginBottom=0;fontColor=none;" parent="WIyWlLk6GJQsqaUBKTNV-1" vertex="1">
          <mxGeometry y="-248" width="150" height="34" as="geometry" />
        </mxCell>
        <mxCell id="MVKSW0jM2tbk2f1vbTIU-138" value="" style="line;strokeWidth=1;fillColor=none;align=left;verticalAlign=middle;spacingTop=-1;spacingLeft=3;spacingRight=3;rotatable=0;labelPosition=right;points=[];portConstraint=eastwest;" parent="MVKSW0jM2tbk2f1vbTIU-137" vertex="1">
          <mxGeometry y="26" width="150" height="8" as="geometry" />
        </mxCell>
        <mxCell id="MVKSW0jM2tbk2f1vbTIU-153" value="InvitéDAO" style="swimlane;fontStyle=1;align=center;verticalAlign=top;childLayout=stackLayout;horizontal=1;startSize=26;horizontalStack=0;resizeParent=1;resizeParentMax=0;resizeLast=0;collapsible=1;marginBottom=0;fontColor=none;" parent="WIyWlLk6GJQsqaUBKTNV-1" vertex="1">
          <mxGeometry x="490" y="-261" width="160" height="60" as="geometry" />
        </mxCell>
        <mxCell id="MVKSW0jM2tbk2f1vbTIU-155" value="" style="line;strokeWidth=1;fillColor=none;align=left;verticalAlign=middle;spacingTop=-1;spacingLeft=3;spacingRight=3;rotatable=0;labelPosition=right;points=[];portConstraint=eastwest;" parent="MVKSW0jM2tbk2f1vbTIU-153" vertex="1">
          <mxGeometry y="26" width="160" height="8" as="geometry" />
        </mxCell>
        <mxCell id="MVKSW0jM2tbk2f1vbTIU-156" value="+ addAccounttoData() " style="text;strokeColor=none;fillColor=none;align=left;verticalAlign=top;spacingLeft=4;spacingRight=4;overflow=hidden;rotatable=0;points=[[0,0.5],[1,0.5]];portConstraint=eastwest;" parent="MVKSW0jM2tbk2f1vbTIU-153" vertex="1">
          <mxGeometry y="34" width="160" height="26" as="geometry" />
        </mxCell>
        <mxCell id="MVKSW0jM2tbk2f1vbTIU-161" style="edgeStyle=orthogonalEdgeStyle;rounded=0;orthogonalLoop=1;jettySize=auto;html=1;exitX=1;exitY=0.5;exitDx=0;exitDy=0;entryX=0;entryY=0.5;entryDx=0;entryDy=0;startArrow=none;startFill=0;startSize=8;endArrow=block;endFill=0;endSize=8;strokeWidth=1;fontColor=none;" parent="WIyWlLk6GJQsqaUBKTNV-1" edge="1">
          <mxGeometry relative="1" as="geometry">
            <mxPoint x="400" y="-231.5" as="sourcePoint" />
            <mxPoint x="490" y="-231.5" as="targetPoint" />
          </mxGeometry>
        </mxCell>
        <mxCell id="MVKSW0jM2tbk2f1vbTIU-8" value="AbstractGame" style="swimlane;fontStyle=1;align=center;verticalAlign=top;childLayout=stackLayout;horizontal=1;startSize=26;horizontalStack=0;resizeParent=1;resizeParentMax=0;resizeLast=0;collapsible=1;marginBottom=0;" parent="WIyWlLk6GJQsqaUBKTNV-1" vertex="1">
          <mxGeometry x="130" y="310" width="160" height="150" as="geometry" />
        </mxCell>
        <mxCell id="MVKSW0jM2tbk2f1vbTIU-164" value="+numberPlayer : num" style="text;html=1;align=left;verticalAlign=middle;resizable=0;points=[];autosize=1;fontColor=none;" parent="MVKSW0jM2tbk2f1vbTIU-8" vertex="1">
          <mxGeometry y="26" width="160" height="20" as="geometry" />
        </mxCell>
        <mxCell id="MVKSW0jM2tbk2f1vbTIU-165" value="+list_cards : str" style="text;html=1;align=left;verticalAlign=middle;resizable=0;points=[];autosize=1;fontColor=none;" parent="MVKSW0jM2tbk2f1vbTIU-8" vertex="1">
          <mxGeometry y="46" width="160" height="20" as="geometry" />
        </mxCell>
        <mxCell id="MVKSW0jM2tbk2f1vbTIU-166" value="+conditionVictoire : str" style="text;html=1;align=left;verticalAlign=middle;resizable=0;points=[];autosize=1;fontColor=none;" parent="MVKSW0jM2tbk2f1vbTIU-8" vertex="1">
          <mxGeometry y="66" width="160" height="20" as="geometry" />
        </mxCell>
        <mxCell id="MVKSW0jM2tbk2f1vbTIU-167" value="+arrêtTour : str" style="text;html=1;align=left;verticalAlign=middle;resizable=0;points=[];autosize=1;fontColor=none;" parent="MVKSW0jM2tbk2f1vbTIU-8" vertex="1">
          <mxGeometry y="86" width="160" height="20" as="geometry" />
        </mxCell>
        <mxCell id="MVKSW0jM2tbk2f1vbTIU-168" value="+" style="text;html=1;align=left;verticalAlign=middle;resizable=0;points=[];autosize=1;fontColor=none;" parent="MVKSW0jM2tbk2f1vbTIU-8" vertex="1">
          <mxGeometry y="106" width="160" height="20" as="geometry" />
        </mxCell>
        <mxCell id="MVKSW0jM2tbk2f1vbTIU-10" value="" style="line;strokeWidth=1;fillColor=none;align=left;verticalAlign=middle;spacingTop=-1;spacingLeft=3;spacingRight=3;rotatable=0;labelPosition=right;points=[];portConstraint=eastwest;" parent="MVKSW0jM2tbk2f1vbTIU-8" vertex="1">
          <mxGeometry y="126" width="160" height="4" as="geometry" />
        </mxCell>
        <mxCell id="MVKSW0jM2tbk2f1vbTIU-169" value="+carteValide() ?&amp;nbsp;" style="text;html=1;align=center;verticalAlign=middle;resizable=0;points=[];autosize=1;fontColor=none;" parent="MVKSW0jM2tbk2f1vbTIU-8" vertex="1">
          <mxGeometry y="130" width="160" height="20" as="geometry" />
        </mxCell>
        <mxCell id="MVKSW0jM2tbk2f1vbTIU-12" value="Statistiques" style="swimlane;fontStyle=1;align=center;verticalAlign=top;childLayout=stackLayout;horizontal=1;startSize=26;horizontalStack=0;resizeParent=1;resizeParentMax=0;resizeLast=0;collapsible=1;marginBottom=0;" parent="WIyWlLk6GJQsqaUBKTNV-1" vertex="1">
          <mxGeometry x="40" y="20" width="160" height="60" as="geometry" />
        </mxCell>
        <mxCell id="MVKSW0jM2tbk2f1vbTIU-14" value="" style="line;strokeWidth=1;fillColor=none;align=left;verticalAlign=middle;spacingTop=-1;spacingLeft=3;spacingRight=3;rotatable=0;labelPosition=right;points=[];portConstraint=eastwest;" parent="MVKSW0jM2tbk2f1vbTIU-12" vertex="1">
          <mxGeometry y="26" width="160" height="8" as="geometry" />
        </mxCell>
        <mxCell id="MVKSW0jM2tbk2f1vbTIU-15" value="Infos victoires etc. " style="text;strokeColor=none;fillColor=none;align=left;verticalAlign=top;spacingLeft=4;spacingRight=4;overflow=hidden;rotatable=0;points=[[0,0.5],[1,0.5]];portConstraint=eastwest;" parent="MVKSW0jM2tbk2f1vbTIU-12" vertex="1">
          <mxGeometry y="34" width="160" height="26" as="geometry" />
        </mxCell>
        <mxCell id="5KWjt4JvU5Wqs_fnBMRH-1" style="edgeStyle=orthogonalEdgeStyle;rounded=0;orthogonalLoop=1;jettySize=auto;html=1;exitX=1;exitY=0.5;exitDx=0;exitDy=0;endArrow=diamond;endFill=1;entryX=0.125;entryY=0.333;entryDx=0;entryDy=0;entryPerimeter=0;" parent="WIyWlLk6GJQsqaUBKTNV-1" source="MVKSW0jM2tbk2f1vbTIU-15" target="MVKSW0jM2tbk2f1vbTIU-61" edge="1">
          <mxGeometry relative="1" as="geometry">
            <mxPoint x="260" y="-20" as="targetPoint" />
            <Array as="points">
              <mxPoint x="220" y="67" />
              <mxPoint x="220" />
              <mxPoint x="260" />
            </Array>
          </mxGeometry>
        </mxCell>
        <mxCell id="MVKSW0jM2tbk2f1vbTIU-79" value="PileDAO" style="swimlane;fontStyle=1;align=center;verticalAlign=top;childLayout=stackLayout;horizontal=1;startSize=26;horizontalStack=0;resizeParent=1;resizeParentMax=0;resizeLast=0;collapsible=1;marginBottom=0;fontColor=none;" parent="WIyWlLk6GJQsqaUBKTNV-1" vertex="1">
          <mxGeometry x="760" y="230" width="160" height="34" as="geometry" />
        </mxCell>
        <mxCell id="MVKSW0jM2tbk2f1vbTIU-81" value="" style="line;strokeWidth=1;fillColor=none;align=left;verticalAlign=middle;spacingTop=-1;spacingLeft=3;spacingRight=3;rotatable=0;labelPosition=right;points=[];portConstraint=eastwest;" parent="MVKSW0jM2tbk2f1vbTIU-79" vertex="1">
          <mxGeometry y="26" width="160" height="8" as="geometry" />
        </mxCell>
        <mxCell id="5KWjt4JvU5Wqs_fnBMRH-3" style="edgeStyle=orthogonalEdgeStyle;rounded=0;orthogonalLoop=1;jettySize=auto;html=1;exitX=0;exitY=0.25;exitDx=0;exitDy=0;entryX=0;entryY=1;entryDx=0;entryDy=0;dashed=1;startArrow=none;startFill=0;endArrow=openThin;endFill=0;" parent="WIyWlLk6GJQsqaUBKTNV-1" source="MVKSW0jM2tbk2f1vbTIU-84" target="MVKSW0jM2tbk2f1vbTIU-84" edge="1">
          <mxGeometry relative="1" as="geometry" />
        </mxCell>
        <mxCell id="5KWjt4JvU5Wqs_fnBMRH-5" value="" style="endArrow=classic;html=1;dashed=1;entryX=0.188;entryY=1.15;entryDx=0;entryDy=0;entryPerimeter=0;" parent="WIyWlLk6GJQsqaUBKTNV-1" target="MVKSW0jM2tbk2f1vbTIU-142" edge="1">
          <mxGeometry width="50" height="50" relative="1" as="geometry">
            <mxPoint x="520" y="250" as="sourcePoint" />
            <mxPoint x="970" y="70" as="targetPoint" />
          </mxGeometry>
        </mxCell>
        <mxCell id="MVKSW0jM2tbk2f1vbTIU-47" value="Hand" style="swimlane;fontStyle=1;align=center;verticalAlign=top;childLayout=stackLayout;horizontal=1;startSize=26;horizontalStack=0;resizeParent=1;resizeParentMax=0;resizeLast=0;collapsible=1;marginBottom=0;fontColor=none;" parent="WIyWlLk6GJQsqaUBKTNV-1" vertex="1">
          <mxGeometry x="760" y="82" width="160" height="76" as="geometry" />
        </mxCell>
        <mxCell id="MVKSW0jM2tbk2f1vbTIU-115" value="+card_list : dict/list?" style="text;html=1;align=left;verticalAlign=middle;resizable=0;points=[];autosize=1;fontColor=none;" parent="MVKSW0jM2tbk2f1vbTIU-47" vertex="1">
          <mxGeometry y="26" width="160" height="20" as="geometry" />
        </mxCell>
        <mxCell id="MVKSW0jM2tbk2f1vbTIU-49" value="" style="line;strokeWidth=1;fillColor=none;align=left;verticalAlign=middle;spacingTop=-1;spacingLeft=3;spacingRight=3;rotatable=0;labelPosition=right;points=[];portConstraint=eastwest;" parent="MVKSW0jM2tbk2f1vbTIU-47" vertex="1">
          <mxGeometry y="46" width="160" height="10" as="geometry" />
        </mxCell>
        <mxCell id="MVKSW0jM2tbk2f1vbTIU-114" value="+saveMain()" style="text;html=1;align=left;verticalAlign=middle;resizable=0;points=[];autosize=1;fontColor=none;" parent="MVKSW0jM2tbk2f1vbTIU-47" vertex="1">
          <mxGeometry y="56" width="160" height="20" as="geometry" />
        </mxCell>
        <mxCell id="MVKSW0jM2tbk2f1vbTIU-69" value="Invité " style="swimlane;fontStyle=1;align=center;verticalAlign=top;childLayout=stackLayout;horizontal=1;startSize=26;horizontalStack=0;resizeParent=1;resizeParentMax=0;resizeLast=0;collapsible=1;marginBottom=0;fontColor=none;" parent="WIyWlLk6GJQsqaUBKTNV-1" vertex="1">
          <mxGeometry x="490" y="-70" width="160" height="120" as="geometry" />
        </mxCell>
        <mxCell id="MVKSW0jM2tbk2f1vbTIU-70" value="" style="line;strokeWidth=1;fillColor=none;align=left;verticalAlign=middle;spacingTop=-1;spacingLeft=3;spacingRight=3;rotatable=0;labelPosition=right;points=[];portConstraint=eastwest;" parent="MVKSW0jM2tbk2f1vbTIU-69" vertex="1">
          <mxGeometry y="26" width="160" height="14" as="geometry" />
        </mxCell>
        <mxCell id="MVKSW0jM2tbk2f1vbTIU-151" value="+Play() RELIER MENU" style="text;html=1;align=left;verticalAlign=middle;resizable=0;points=[];autosize=1;fontColor=none;" parent="MVKSW0jM2tbk2f1vbTIU-69" vertex="1">
          <mxGeometry y="40" width="160" height="20" as="geometry" />
        </mxCell>
        <mxCell id="MVKSW0jM2tbk2f1vbTIU-145" value="+Quit()" style="text;html=1;align=left;verticalAlign=middle;resizable=0;points=[];autosize=1;fontColor=none;" parent="MVKSW0jM2tbk2f1vbTIU-69" vertex="1">
          <mxGeometry y="60" width="160" height="20" as="geometry" />
        </mxCell>
        <mxCell id="MVKSW0jM2tbk2f1vbTIU-144" value="+createAccount()" style="text;html=1;align=left;verticalAlign=middle;resizable=0;points=[];autosize=1;fontColor=none;" parent="MVKSW0jM2tbk2f1vbTIU-69" vertex="1">
          <mxGeometry y="80" width="160" height="20" as="geometry" />
        </mxCell>
        <mxCell id="MVKSW0jM2tbk2f1vbTIU-142" value="+connection()" style="text;html=1;align=left;verticalAlign=middle;resizable=0;points=[];autosize=1;fontColor=none;" parent="MVKSW0jM2tbk2f1vbTIU-69" vertex="1">
          <mxGeometry y="100" width="160" height="20" as="geometry" />
        </mxCell>
      </root>
    </mxGraphModel>
  </diagram>
</mxfile>
